<?xml version="1.0" standalone="no"?>
<!DOCTYPE svg PUBLIC "-//W3C//DTD SVG 20010904//EN"
 "http://www.w3.org/TR/2001/REC-SVG-20010904/DTD/svg10.dtd">
<svg version="1.0" xmlns="http://www.w3.org/2000/svg"
 width="300.000000pt" height="300.000000pt" viewBox="0 0 300.000000 300.000000"
 preserveAspectRatio="xMidYMid meet">
<metadata>
Created by potrace 1.10, written by Peter Selinger 2001-2011
</metadata>
<g transform="translate(0.000000,300.000000) scale(0.050000,-0.050000)"
fill="#000000" stroke="none">
<path d="M2810 5119 c-47 -23 -59 -35 -30 -28 114 28 260 34 260 11 0 -12 -24
-22 -54 -22 -142 0 -326 -160 -326 -285 0 -77 94 -77 184 2 36 31 84 67 106
79 38 22 38 23 -8 23 -29 1 -73 -26 -113 -69 -104 -110 -161 -61 -67 58 67 86
338 167 338 101 0 -38 -79 -117 -144 -143 -80 -32 -116 -76 -116 -141 0 -24
-24 -46 -70 -62 -39 -14 -97 -48 -130 -76 l-60 -51 0 163 c0 205 -96 381 -209
381 -56 0 -50 -83 10 -134 124 -104 146 -526 27 -526 -4 0 -8 81 -8 181 0 266
-65 359 -249 359 -163 0 -231 -95 -231 -321 l0 -179 -181 0 c-486 0 -762 -535
-432 -838 l52 -48 -95 -44 c-282 -131 -382 -481 -205 -722 56 -76 57 -86 64
-368 10 -382 115 -573 335 -612 40 -7 100 -39 134 -71 34 -32 87 -65 117 -74
43 -11 64 -37 92 -111 78 -205 257 -294 444 -221 29 11 35 2 35 -48 0 -164
134 -313 330 -366 35 -10 -2 -11 -90 -3 -82 7 -199 12 -260 11 -91 -2 -102 2
-66 19 169 81 -19 88 -633 23 -295 -32 -381 -51 -381 -85 0 -57 677 -124 1204
-120 l266 2 -170 25 c-510 75 -407 93 510 86 446 -3 814 2 819 10 4 9 6 5 3
-8 -4 -23 -125 -59 -291 -86 -163 -28 -65 -36 299 -24 570 18 1000 66 1000
113 0 45 -317 96 -700 111 -137 6 -280 14 -318 19 l-67 8 47 -50 48 -51 -120
1 c-66 1 -205 -2 -310 -7 -147 -6 -165 -4 -78 8 218 30 378 177 378 348 0 82
-3 81 74 52 154 -59 366 62 409 235 19 75 31 90 82 100 33 7 90 42 127 79 39
39 87 67 115 67 262 0 454 456 310 734 l-53 102 48 25 c303 162 249 724 -81
850 l-89 34 58 72 c243 303 39 823 -321 823 -54 0 -54 0 -63 177 -13 281 -118
393 -366 393 -254 0 -370 -138 -370 -437 0 -159 -2 -169 -40 -159 -68 18 -60
441 9 520 44 49 50 51 50 17 1 -35 5 -36 30 -10 34 33 20 119 -19 119 -114 0
-213 -191 -201 -390 10 -165 16 -162 -117 -66 -43 31 -90 56 -105 56 -15 0
-27 18 -27 40 0 49 15 50 64 6 100 -91 88 73 -17 209 l-52 69 47 -24 c27 -14
62 -36 78 -50 130 -106 134 18 5 132 -141 124 -322 153 -475 77z m1269 -252
c64 -38 121 -125 121 -185 0 -61 -76 -56 -100 7 -53 141 -300 129 -300 -15 0
-32 -83 -134 -108 -134 -14 0 9 174 30 224 49 119 238 174 357 103z m-859 -21
c0 -41 -91 -79 -114 -49 -34 45 -32 59 9 68 38 8 105 -4 105 -19z m-977 -59
c51 -46 50 -147 -1 -147 -21 0 -55 -5 -75 -10 -21 -6 -12 1 19 16 50 24 53 30
26 53 -41 33 -92 13 -92 -36 0 -35 -36 -63 -82 -63 -34 0 -18 114 23 167 48
61 127 70 182 20z m813 -31 c47 -47 25 -71 -66 -73 -60 -1 -90 7 -90 24 0 38
43 73 90 73 23 0 53 -11 66 -24z m967 -49 c24 -21 37 -61 37 -109 l0 -75 -58
59 c-35 34 -80 58 -110 58 -61 0 -64 13 -19 63 41 46 102 47 150 4z m177 -188
c0 -73 -5 -81 -45 -75 -25 3 -43 13 -40 21 3 8 5 42 5 75 0 47 9 60 40 60 33
0 40 -13 40 -81z m-228 19 c30 -33 41 -86 51 -245 22 -336 21 -333 156 -333
119 0 301 -50 301 -83 0 -11 9 -14 20 -7 12 7 20 6 18 -4 -11 -61 4 -133 22
-106 106 165 -79 400 -315 400 l-105 0 0 68 c0 98 37 121 154 93 53 -13 114
-26 136 -29 22 -4 46 -8 54 -9 32 -6 160 -132 187 -185 66 -127 6 -407 -93
-433 -67 -17 -56 -245 13 -245 97 0 269 -133 269 -209 0 -16 9 -34 20 -41 42
-26 23 -104 -25 -98 -25 2 -61 5 -80 6 -21 1 -35 18 -35 40 0 47 -108 142
-162 142 -21 0 -38 -13 -38 -30 0 -16 15 -30 34 -30 35 0 126 -75 126 -103 0
-10 -34 -17 -76 -17 -42 0 -86 -10 -98 -22 -15 -15 -37 -1 -76 50 -50 66 -63
72 -156 72 -95 0 -174 38 -174 83 0 9 66 17 146 17 194 0 194 0 194 290 0 302
11 290 -274 290 -167 0 -226 6 -226 25 -5 417 -27 615 -69 615 -25 0 -31 -28
-31 -143 l0 -144 -50 47 c-66 62 -71 219 -10 280 52 52 144 51 192 -2z m-780
-16 c46 -21 111 -73 145 -116 45 -56 89 -85 153 -102 158 -42 288 -191 321
-369 13 -73 12 -75 -46 -75 -55 0 -61 7 -73 83 -19 116 -152 250 -268 269 -64
10 -92 28 -128 81 -139 205 -457 200 -612 -11 -25 -35 -63 -62 -87 -62 -74 0
-181 -65 -235 -143 -28 -41 -65 -76 -82 -77 -27 0 -27 -3 0 -20 51 -33 74 -23
118 51 43 73 172 148 255 149 28 0 59 25 85 67 116 187 348 185 522 -4 101
-109 165 -160 130 -103 -42 68 129 -19 198 -101 59 -70 72 -187 22 -206 -24
-10 -30 -58 -30 -260 0 -296 2 -299 189 -290 72 4 131 5 131 3 -1 -73 -53
-106 -169 -106 l-123 0 -64 -90 c-68 -96 -244 -140 -244 -60 0 20 -20 30 -59
30 -46 0 -67 14 -90 59 -45 87 -45 87 131 77 212 -13 218 -6 218 228 0 149 6
186 35 209 33 26 33 27 0 15 -32 -11 -35 5 -35 170 l0 182 -176 0 c-164 0
-180 4 -220 50 -58 66 -145 66 -207 0 -43 -45 -62 -49 -217 -50 l-170 0 4
-384 c5 -459 -3 -445 221 -425 158 15 159 14 114 -72 -23 -45 -44 -59 -90 -59
-39 0 -59 -10 -59 -30 0 -80 -189 -37 -258 60 -64 89 -66 90 -183 90 -96 0
-121 7 -138 39 -35 65 -25 71 113 64 180 -9 186 1 186 297 0 301 32 280 -430
280 -463 0 -430 22 -430 -292 0 -294 1 -296 200 -285 77 5 140 6 140 4 0 -69
-54 -107 -150 -107 -104 0 -104 0 -177 -110 -40 -60 -73 -114 -73 -120 0 -5
106 -10 235 -11 l235 0 -60 -50 c-55 -44 -78 -49 -255 -49 l-195 0 0 120 0
120 -70 0 c-98 0 -77 76 31 110 31 10 40 27 35 67 -8 69 -84 64 -156 -10 l-50
-51 48 24 49 25 -44 -55 c-23 -31 -43 -68 -43 -83 0 -15 -21 -27 -48 -27 -27
0 -63 -5 -80 -12 -46 -18 -41 60 10 166 46 96 175 186 265 186 79 0 81 202 3
264 -293 230 3 707 401 647 121 -18 143 -172 24 -170 -54 0 -59 4 -30 21 48
27 44 58 -7 58 -25 0 -46 -16 -52 -40 -6 -23 -27 -40 -50 -40 -47 0 -110 -31
-175 -87 -41 -35 -44 -36 -20 -5 16 21 70 64 119 97 81 52 84 57 30 45 -192
-42 -328 -339 -221 -481 28 -37 30 -36 30 24 1 102 91 281 159 316 94 49 282
42 282 -10 0 -37 -9 -39 -97 -28 -87 12 -223 -26 -223 -62 0 -5 133 -9 295 -9
l295 0 37 90 c45 110 167 218 291 259 57 19 112 56 146 98 116 146 365 198
548 115z m-985 -43 c70 -56 72 -154 4 -218 l-49 -46 -6 98 c-11 168 -64 130
-76 -55 -9 -141 -38 -218 -82 -218 -10 0 -18 86 -18 191 0 262 88 357 227 248z
m2235 -455 c73 -81 82 -143 14 -95 -25 17 -60 31 -78 31 -18 0 -44 13 -57 29
-13 16 -66 32 -117 35 -73 5 -95 14 -101 43 -14 74 267 38 339 -43z m-1245
-140 c-4 -9 -97 -97 -207 -197 -110 -100 -218 -202 -240 -227 l-40 -45 50 15
c78 23 428 341 409 371 -15 25 91 82 142 75 99 -12 -472 -504 -594 -512 l-97
-6 0 260 0 261 275 6 c151 3 283 8 292 11 9 2 13 -3 10 -12z m183 -112 c0 -65
-415 -415 -484 -408 l-66 6 60 34 c50 29 227 185 400 354 47 46 90 53 90 14z
m-1114 -31 c71 -1 64 -13 -129 -198 -128 -122 -163 -145 -210 -139 l-57 6 76
38 c41 20 111 78 155 127 162 185 55 136 -140 -63 -103 -105 -116 -112 -205
-112 l-96 0 0 175 0 175 275 -4 c151 -3 300 -5 331 -5z m2070 -29 c-3 -12 -74
-87 -158 -167 l-151 -145 -174 0 -173 0 0 169 0 170 285 5 c318 7 380 1 371
-32z m-2036 -88 c0 -24 -217 -233 -230 -221 -6 6 35 49 90 97 55 47 100 98
100 113 0 15 9 27 20 27 11 0 20 -7 20 -16z m2029 -19 c-12 -8 -20 -56 -18
-107 3 -87 1 -92 -49 -94 -29 0 -62 -3 -73 -5 -96 -19 -94 5 11 111 60 61 118
110 129 110 14 -1 14 -5 0 -15z m-974 -68 c-24 -13 -31 -40 -27 -97 4 -44 -2
-80 -12 -80 -10 0 -16 11 -15 25 7 50 -1 77 -20 66 -10 -7 -15 -30 -11 -51 8
-44 -21 -55 -37 -15 -7 19 -15 18 -31 -5 -12 -16 -22 -21 -23 -10 -1 11 -5 41
-7 66 -3 25 2 50 12 56 9 6 16 4 14 -6 -6 -37 3 -66 23 -66 11 0 18 16 15 35
-4 23 5 33 27 30 18 -3 38 8 44 25 9 24 1 29 -38 22 -27 -5 -46 -3 -41 5 5 8
43 15 84 16 55 2 66 -2 43 -16z m-1050 -22 c-11 -14 -17 -47 -14 -75 4 -27 2
-39 -4 -25 -6 14 -20 19 -32 12 -13 -8 -15 -4 -5 13 12 20 7 23 -22 13 -23 -9
-15 5 22 36 66 55 85 64 55 26z m507 -215 c134 0 168 -6 168 -29 0 -25 -34
-29 -200 -23 -110 4 -200 12 -200 19 0 7 0 23 0 35 0 12 14 17 32 10 17 -7
107 -12 200 -12z m1523 -175 c5 -15 -9 -25 -33 -25 -25 0 -42 13 -42 31 0 37
62 32 75 -6z m-2115 -5 c0 -12 -103 -20 -270 -20 -167 0 -270 8 -270 20 0 12
103 20 270 20 167 0 270 -8 270 -20z m2000 0 c0 -12 -110 -20 -290 -20 -180 0
-290 8 -290 20 0 12 110 20 290 20 180 0 290 -8 290 -20z m-1225 -35 c6 -17
-15 -25 -63 -25 -56 0 -68 7 -59 31 14 37 110 32 122 -6z m-615 -25 c0 -13
-140 -20 -380 -20 -240 0 -380 7 -380 20 0 13 140 20 380 20 240 0 380 -7 380
-20z m2000 0 c0 -13 -147 -20 -401 -20 -263 0 -397 7 -389 20 8 12 164 20 401
20 246 0 389 -7 389 -20z m-3020 -150 c0 -42 -9 -50 -60 -50 -51 0 -60 8 -60
50 0 42 9 50 60 50 51 0 60 -8 60 -50z m3296 -69 c-76 -72 -144 -120 -171
-120 -44 -1 -45 -5 -45 -258 0 -247 -2 -258 -50 -303 l-50 -47 0 304 0 303
-70 0 c-64 0 -70 5 -70 60 l0 60 -940 0 -940 0 0 -70 c0 -61 6 -70 50 -70 43
0 50 -9 50 -62 0 -56 -5 -62 -50 -53 -49 9 -50 6 -50 -108 0 -117 0 -117 60
-117 51 0 60 -8 60 -50 0 -44 -8 -50 -73 -50 -132 0 -147 32 -147 311 l0 246
85 71 85 71 1196 1 1195 0 -125 -119z m-2565 -141 c19 0 29 -21 29 -62 0 -47
-7 -59 -30 -51 -25 10 -30 -15 -30 -158 0 -167 -1 -169 -50 -169 -49 0 -50 3
-50 160 0 129 -6 160 -30 160 -20 0 -30 20 -30 60 0 40 10 60 30 60 18 0 30
18 30 44 0 24 20 65 45 92 l45 48 6 -92 c4 -64 15 -92 35 -92z m-731 -168 c0
-283 -3 -290 -105 -292 -8 0 -15 126 -15 280 l0 280 60 0 60 0 0 -268z m419
115 c34 -43 41 -81 41 -220 l0 -167 -57 0 -57 0 2 165 2 165 -65 6 -65 7 0
-172 c0 -169 -1 -171 -50 -171 l-50 0 0 220 0 220 129 0 c115 0 132 -6 170
-53z m1057 -2 c-6 -52 -11 -55 -116 -55 -99 0 -111 -5 -116 -45 -6 -39 2 -45
57 -45 55 0 60 -4 39 -30 -14 -16 -42 -30 -64 -30 -106 0 -24 -70 89 -76 107
-6 115 -9 115 -55 0 -47 -6 -49 -121 -49 -170 0 -219 49 -219 220 0 171 49
220 220 220 122 0 123 0 116 -55z m403 2 c54 -69 55 -188 2 -236 -40 -36 -40
-36 0 -86 51 -65 49 -103 -11 -170 -64 -73 -70 -70 -70 37 0 73 -13 109 -61
169 l-60 76 55 7 c90 10 97 156 7 156 -67 0 -74 -27 -62 -245 4 -90 2 -95 -47
-95 l-52 0 0 220 0 220 129 0 c115 0 132 -6 170 -53z m441 13 c67 -67 60 -400
-9 -400 -48 0 -50 5 -55 165 l-6 165 -65 6 -65 7 0 -172 c0 -169 -1 -171 -50
-171 l-50 0 0 220 0 220 130 0 c103 0 138 -8 170 -40z m460 -16 c0 -54 -3 -56
-105 -55 -94 1 -106 -4 -111 -44 -6 -39 2 -45 57 -45 55 0 60 -4 39 -30 -14
-16 -42 -30 -62 -30 -25 0 -38 -14 -38 -40 0 -35 13 -40 110 -40 104 0 110 -3
110 -50 0 -71 -200 -75 -274 -7 -66 63 -67 282 -3 351 72 76 277 69 277 -10z
m504 -99 c163 -185 108 -485 -109 -597 -94 -49 -78 73 25 184 45 49 80 107 80
133 -1 32 -5 37 -18 18 -26 -42 -42 21 -42 169 0 133 13 152 64 93z m-3184
-471 c43 -49 44 -54 10 -41 -37 13 -38 11 -11 -24 23 -31 23 -34 1 -14 -47 42
-68 28 -29 -20 21 -25 2 -12 -41 29 -77 74 -78 75 -39 113 21 21 44 33 49 26
6 -7 33 -38 60 -69z m366 8 c165 -63 141 -302 -31 -302 -70 0 -175 96 -175
160 0 44 100 160 137 160 11 0 42 -8 69 -18z m330 -47 c9 -78 -56 -74 -104 6
l-36 62 67 -7 c56 -5 68 -15 73 -61z m180 41 c62 -62 -5 -135 -96 -106 -39 12
-56 87 -27 117 22 21 97 15 123 -11z m714 -36 l57 -60 -178 1 c-119 1 -166 8
-139 19 27 12 -9 17 -110 17 -104 -1 -135 -6 -100 -17 40 -13 29 -16 -53 -18
-76 -1 -106 6 -115 30 -33 86 -26 88 284 88 l297 0 57 -60z m530 32 c0 -82
-20 -92 -186 -92 l-161 0 57 60 c65 68 290 93 290 32z m196 -37 c6 -52 2 -55
-75 -55 -90 0 -124 38 -80 91 44 54 148 30 155 -36z m151 5 c-37 -62 -107 -82
-107 -32 0 63 26 92 83 92 l59 0 -35 -60z m377 4 c137 -137 -58 -343 -211
-223 -38 30 -53 61 -53 107 0 146 162 217 264 116z m-2108 -149 c5 -24 -6 -35
-35 -35 -28 0 -41 13 -41 41 0 52 66 46 76 -6z m684 -76 c68 -75 104 -99 147
-99 49 0 54 -5 33 -30 -46 -56 -108 -33 -220 80 l-109 110 -165 0 c-145 0
-188 11 -158 42 5 4 93 5 195 2 l187 -6 90 -99z m109 59 c-17 -28 -69 -21 -69
9 0 14 6 32 13 39 18 19 69 -26 56 -48z m588 22 c4 -13 -83 -20 -235 -20 -221
0 -266 9 -229 46 20 21 456 -4 464 -26z m-1264 -165 c-13 -204 -70 -295 -184
-295 -153 0 -280 181 -169 240 54 29 86 6 72 -51 -13 -51 31 -109 83 -109 71
0 105 61 105 188 1 163 16 212 64 212 38 0 39 -10 29 -185z m1357 25 c0 -115
-7 -160 -25 -160 -18 0 -25 45 -25 160 0 115 7 160 25 160 18 0 25 -46 25
-160z m90 15 c1 -173 30 -243 105 -251 54 -7 112 72 85 115 -20 33 48 68 80
41 137 -114 -136 -309 -277 -199 -65 51 -85 439 -23 439 24 0 30 -30 30 -145z
m-1621 16 c36 -44 19 -199 -24 -207 -27 -5 -35 7 -35 51 0 31 -10 67 -22 79
-27 27 -5 106 31 106 14 0 37 -13 50 -29z m683 -81 c134 -128 179 -136 279
-51 67 58 139 80 139 43 0 -27 -137 -142 -195 -164 -74 -28 -120 -6 -264 126
-124 114 -134 118 -230 116 -139 -5 -151 -3 -151 20 0 12 64 20 153 20 l153 0
116 -110z m753 85 c-10 -29 -575 -48 -575 -19 0 38 38 44 305 44 214 0 276 -6
270 -25z m356 -17 c7 -23 3 -52 -9 -64 -12 -12 -22 -48 -22 -79 0 -102 -69
-63 -76 42 -10 137 71 213 107 101z m-1331 -188 c291 -333 484 -338 768 -22
130 146 175 175 202 132 17 -27 -7 -100 -33 -100 -12 0 -83 -67 -160 -149
-271 -290 -522 -281 -802 29 -60 66 -122 120 -138 120 -17 0 -30 23 -33 60 -8
103 69 75 196 -70z m172 10 c179 -172 278 -166 467 28 149 153 214 127 77 -30
-229 -263 -387 -263 -645 0 -172 175 -81 176 101 2z m-292 -231 c0 -137 17
-188 86 -264 48 -53 35 -57 -47 -15 -124 65 -180 410 -66 410 20 0 27 -35 27
-131z m1096 107 c36 -36 29 -76 -15 -76 -47 0 -65 26 -49 68 15 38 32 40 64 8z
m17 -191 c-14 -85 -57 -154 -124 -197 -72 -48 -83 -20 -21 53 36 43 52 85 52
137 0 89 9 101 63 87 35 -9 39 -22 30 -80z m-769 -107 c133 -68 284 -48 436
57 139 96 164 68 56 -63 -183 -223 -560 -194 -688 52 -53 102 -35 126 43 58
38 -34 107 -81 153 -104z"/>
<path d="M4473 4224 c34 -30 81 -85 105 -124 48 -80 54 -73 16 18 -15 34 -57
85 -94 112 -90 66 -106 62 -27 -6z"/>
<path d="M2890 4222 c-48 -21 -119 -98 -136 -147 -18 -50 0 -44 121 39 83 58
111 68 124 48 9 -15 25 -22 35 -16 10 6 51 4 92 -5 83 -19 93 -4 34 49 -44 40
-207 60 -270 32z"/>
<path d="M1879 3566 c-53 -56 -58 -67 -20 -43 43 27 118 117 97 117 -4 0 -39
-33 -77 -74z"/>
<path d="M3925 3548 c-134 -130 -134 -131 -48 -85 86 46 203 160 203 198 0 34
-17 21 -155 -113z"/>
<path d="M4059 3548 c-60 -62 -91 -103 -69 -92 52 27 224 204 198 204 -10 0
-69 -51 -129 -112z"/>
<path d="M4215 3505 l-74 -76 77 0 c74 0 95 27 53 65 -10 9 -11 5 -4 -8 8 -13
5 -28 -5 -35 -29 -18 -42 44 -14 67 14 12 30 17 36 12 5 -6 9 4 9 20 0 38 7
42 -78 -45z"/>
<path d="M1750 1992 c-50 -36 -31 -102 30 -102 39 0 51 12 56 52 7 62 -36 87
-86 50z"/>
<path d="M4133 1970 c-17 -45 6 -90 47 -90 47 0 84 47 68 87 -15 41 -100 43
-115 3z"/>
<path d="M1787 4889 c-17 -44 25 -85 56 -54 25 25 9 85 -23 85 -12 0 -27 -14
-33 -31z"/>
<path d="M1455 4838 c-52 -39 -53 -75 -5 -134 28 -34 145 85 126 127 -27 59
-49 60 -121 7z"/>
<path d="M4416 4689 c-20 -43 -17 -57 20 -93 55 -55 144 -24 144 50 0 100
-123 133 -164 43z"/>
<path d="M1701 4651 c-42 -50 -17 -101 49 -101 48 0 61 10 67 48 10 73 -69
110 -116 53z"/>
<path d="M1344 4565 c4 -19 20 -35 36 -35 16 0 32 16 36 35 5 25 -6 35 -36 35
-30 0 -41 -10 -36 -35z"/>
<path d="M4626 4568 c-12 -33 30 -73 58 -55 9 5 16 27 16 48 0 47 -56 52 -74
7z"/>
<path d="M1002 3584 c-30 -56 16 -114 76 -95 34 11 43 27 38 68 -8 67 -83 85
-114 27z"/>
<path d="M4869 3578 c-27 -85 92 -131 124 -48 15 39 -27 90 -74 90 -20 0 -42
-19 -50 -42z"/>
<path d="M1069 1818 c-18 -28 21 -67 49 -49 12 7 22 26 22 42 0 34 -51 39 -71
7z"/>
<path d="M4849 1818 c-21 -33 26 -71 53 -44 23 23 9 66 -22 66 -10 0 -24 -10
-31 -22z"/>
<path d="M1227 1770 c-7 -18 -3 -42 9 -54 30 -30 88 -3 80 39 -9 46 -73 57
-89 15z"/>
<path d="M4667 1770 c-7 -18 -3 -42 9 -54 30 -30 88 -3 80 39 -9 46 -73 57
-89 15z"/>
<path d="M1344 1616 c-34 -34 -30 -95 8 -109 47 -19 103 45 76 87 -28 45 -54
52 -84 22z"/>
<path d="M4519 1579 c-24 -46 4 -99 53 -99 40 0 68 65 45 106 -26 46 -71 43
-98 -7z"/>
<path d="M1600 1570 c0 -17 18 -30 40 -30 22 0 40 13 40 30 0 17 -18 30 -40
30 -22 0 -40 -13 -40 -30z"/>
<path d="M1491 1385 c-16 -63 -1 -78 96 -96 74 -14 76 -13 70 42 -10 85 -147
130 -166 54z"/>
<path d="M4333 1358 c-61 -87 38 -186 125 -125 46 32 56 105 18 143 -38 38
-111 28 -143 -18z"/>
<path d="M1806 1288 c-14 -37 35 -75 61 -49 22 22 2 81 -27 81 -12 0 -27 -14
-34 -32z"/>
<path d="M4073 1227 c-25 -26 -13 -83 21 -96 43 -16 91 32 75 75 -13 34 -70
46 -96 21z"/>
<path d="M2069 1190 c47 -36 118 -40 106 -5 -4 14 -39 27 -77 30 -64 5 -66 4
-29 -25z"/>
<path d="M3813 1176 c-14 -54 -12 -57 60 -62 49 -3 58 4 63 51 9 74 -104 84
-123 11z"/>
</g>
</svg>
